<?xml version="1.0" encoding="UTF-8" standalone="no"?>
<svg
   xmlns:dc="http://purl.org/dc/elements/1.1/"
   xmlns:cc="http://creativecommons.org/ns#"
   xmlns:rdf="http://www.w3.org/1999/02/22-rdf-syntax-ns#"
   xmlns:svg="http://www.w3.org/2000/svg"
   xmlns="http://www.w3.org/2000/svg"
   xmlns:sodipodi="http://sodipodi.sourceforge.net/DTD/sodipodi-0.dtd"
   xmlns:inkscape="http://www.inkscape.org/namespaces/inkscape"
   height="100px"
   width="100px"
   fill="#000000"
   version="1.1"
   x="0px"
   y="0px"
   viewBox="0 0 1080 1080"
   enable-background="new 0 0 1080 1080"
   xml:space="preserve"
   id="svg4136"
   inkscape:version="0.91 r13725"
   sodipodi:docname="left-click.svg"
   inkscape:export-filename="C:\Users\Siddhartha\Dropbox\TeacherRobin\Robins-Explosions\img\path4140.png"
   inkscape:export-xdpi="6.3899999"
   inkscape:export-ydpi="6.3899999"><metadata
     id="metadata4146"><rdf:RDF><cc:Work
         rdf:about=""><dc:format>image/svg+xml</dc:format><dc:type
           rdf:resource="http://purl.org/dc/dcmitype/StillImage" /></cc:Work></rdf:RDF></metadata><defs
     id="defs4144" /><sodipodi:namedview
     pagecolor="#ffffff"
     bordercolor="#666666"
     borderopacity="1"
     objecttolerance="10"
     gridtolerance="10"
     guidetolerance="10"
     inkscape:pageopacity="0"
     inkscape:pageshadow="2"
     inkscape:window-width="1920"
     inkscape:window-height="1017"
     id="namedview4142"
     showgrid="false"
     inkscape:zoom="8.5"
     inkscape:cx="32.411765"
     inkscape:cy="50"
     inkscape:window-x="-8"
     inkscape:window-y="-8"
     inkscape:window-maximized="1"
     inkscape:current-layer="svg4136" /><text
     transform="matrix(1 0 0 1 46.374 1323.8779)"
     font-family="'MyriadPro-Regular'"
     font-size="72"
     id="text4138">Created by Benjamin Sommerlad</text>
<path
     d="M550.246,359.486c0.876-14.944-1.869-29.538-8.353-43.674c-7.745-16.886-19.737-31.374-30.404-46.434  c-10.389-14.668-20.154-30.673-22.419-48.56c-0.565-4.46-0.648-8.993-0.421-13.48c0.042-0.836,0.137-1.671,0.216-2.504  c0.015-0.152,0.033-0.275,0.043-0.384c0.021-0.122,0.048-0.266,0.078-0.457c0.284-1.815,0.708-3.606,1.187-5.378  c0.398-1.472,0.899-2.914,1.434-4.34c0.046-0.123,0.082-0.218,0.115-0.308c0.04-0.087,0.083-0.183,0.138-0.305  c0.303-0.678,0.637-1.342,0.971-2.005c0.665-1.32,1.417-2.592,2.196-3.847c0.389-0.626,0.804-1.236,1.219-1.845  c0.143-0.209,1.02-1.373,1.219-1.656c1.745-2.156,3.667-4.165,5.674-6.076c1.109-1.056,2.268-2.057,3.439-3.042  c0.435-0.366,0.881-0.718,1.325-1.072c-0.162,0.147,1.575-1.181,1.799-1.344c5.541-4.025,11.525-7.421,17.604-10.557  c13.03-6.724,26.724-12.073,40.161-17.909c25.386-11.027,52.783-24.874,62.898-52.512c4.349-11.878,3.804-25,1.433-37.219  c-2.21-11.388-19.558-6.554-17.357,4.785c0.729,3.752,0.993,5.637,1.171,9.985c0.071,1.747,0.036,3.496-0.04,5.242  c-0.037,0.84-0.11,1.678-0.184,2.515c-0.03,0.311-0.068,0.621-0.104,0.931c-0.02,0.11-0.057,0.344-0.114,0.717  c-1.22,7.402-2.578,10.395-6.175,16.093c-0.296,0.469-1.948,2.765-1.919,2.788c-0.819,1.027-1.679,2.021-2.56,2.994  c-2.21,2.44-4.65,4.664-7.179,6.768c-0.112,0.094-0.919,0.734-1.153,0.929c-0.449,0.338-0.899,0.676-1.354,1.009  c-1.287,0.942-2.607,1.838-3.937,2.72c-2.965,1.968-6.039,3.768-9.148,5.493c-25.197,13.98-53.68,21.494-77.848,37.418  c-11.337,7.47-21.771,17.138-27.58,29.611c-7.445,15.986-6.968,34.346-2.365,51.096c10.065,36.627,43.244,61.341,55.406,96.127  c3.175,9.083,3.778,18.232,2.993,27.547C418.175,363.135,326,457.182,326,572.262v246.613c0,117.475,95.525,213.047,213,213.047  s213-95.572,213-213.047V572.262C752,458.392,662.745,365.103,550.246,359.486z M730,818.875c0,105.389-85.613,191.127-191,191.127  s-191-85.738-191-191.127V689h382V818.875z M730,667H549V381.415c101,5.357,181,88.908,181,190.847V667z"
     id="path4140"
     style="stroke:#1ce919;stroke-opacity:1;stroke-width:0;stroke-miterlimit:4;stroke-dasharray:none;fill:#ffffff;fill-opacity:0.2" /></svg>