<?xml version="1.0" encoding="UTF-8" standalone="no"?>
<svg
   xmlns:dc="http://purl.org/dc/elements/1.1/"
   xmlns:cc="http://creativecommons.org/ns#"
   xmlns:rdf="http://www.w3.org/1999/02/22-rdf-syntax-ns#"
   xmlns:svg="http://www.w3.org/2000/svg"
   xmlns="http://www.w3.org/2000/svg"
   xmlns:sodipodi="http://sodipodi.sourceforge.net/DTD/sodipodi-0.dtd"
   xmlns:inkscape="http://www.inkscape.org/namespaces/inkscape"
   height="100px"
   width="100px"
   fill="#000000"
   version="1.1"
   x="0px"
   y="0px"
   viewBox="0 0 1080 1080"
   enable-background="new 0 0 1080 1080"
   xml:space="preserve"
   id="svg4136"
   inkscape:version="0.91 r13725"
   sodipodi:docname="right-click.svg"
   inkscape:export-filename="C:\Users\Siddhartha\Dropbox\TeacherRobin\Robins-Explosions\img\path4140.png"
   inkscape:export-xdpi="6.3899999"
   inkscape:export-ydpi="6.3899999"><metadata
     id="metadata4146"><rdf:RDF><cc:Work
         rdf:about=""><dc:format>image/svg+xml</dc:format><dc:type
           rdf:resource="http://purl.org/dc/dcmitype/StillImage" /><dc:title></dc:title></cc:Work></rdf:RDF></metadata><defs
     id="defs4144" /><sodipodi:namedview
     pagecolor="#ffffff"
     bordercolor="#666666"
     borderopacity="1"
     objecttolerance="10"
     gridtolerance="10"
     guidetolerance="10"
     inkscape:pageopacity="0"
     inkscape:pageshadow="2"
     inkscape:window-width="1920"
     inkscape:window-height="1017"
     id="namedview4142"
     showgrid="false"
     inkscape:zoom="5.6568543"
     inkscape:cx="20.835866"
     inkscape:cy="40.437266"
     inkscape:window-x="-8"
     inkscape:window-y="-8"
     inkscape:window-maximized="1"
     inkscape:current-layer="svg4136" /><text
     transform="matrix(1 0 0 1 46.374 1323.8779)"
     font-family="'MyriadPro-Regular'"
     font-size="72"
     id="text4138">Created by Benjamin Sommerlad</text>
<path
     style="fill:#ffffff;fill-opacity:0.2;stroke:#1ce919;stroke-width:0;stroke-miterlimit:4;stroke-dasharray:none;stroke-opacity:1"
     d="M 57.847656 4.453125 C 57.345016 4.4191 56.765205 4.8399015 56.892578 5.4960938 C 56.960078 5.8435011 56.985468 6.0192824 57.001953 6.421875 C 57.008555 6.5836343 57.005047 6.7445833 56.998047 6.90625 C 56.994649 6.9840281 56.987319 7.0611719 56.980469 7.1386719 C 56.977672 7.1674679 56.974105 7.1959063 56.970703 7.2246094 C 56.968805 7.2347944 56.966237 7.2564787 56.960938 7.2910156 C 56.847975 7.9763861 56.721726 8.2536573 56.388672 8.78125 C 56.361262 8.8246759 56.208251 9.038886 56.210938 9.0410156 C 56.135108 9.1361087 56.056183 9.2282672 55.974609 9.3183594 C 55.76998 9.5442853 55.542759 9.7485455 55.308594 9.9433594 C 55.298223 9.9520631 55.224794 10.01124 55.203125 10.029297 C 55.161555 10.060597 55.118304 10.092216 55.076172 10.123047 C 54.957004 10.210266 54.836039 10.293332 54.712891 10.375 C 54.438354 10.557222 54.153105 10.725042 53.865234 10.884766 C 51.532179 12.17921 48.894028 12.873213 46.65625 14.347656 C 45.606528 15.039323 44.641386 15.934935 44.103516 17.089844 C 43.414164 18.570029 43.458562 20.27134 43.884766 21.822266 C 44.81671 25.213653 47.887561 27.50173 49.013672 30.722656 C 49.307652 31.563676 49.363701 32.410938 49.291016 33.273438 L 49.90625 33.279297 L 48.833984 33.289062 C 38.43238 33.825112 30.185547 42.45353 30.185547 52.986328 L 30.185547 75.822266 C 30.185547 86.699579 39.028936 95.548828 49.90625 95.548828 C 60.783564 95.548828 69.628906 86.699579 69.628906 75.822266 L 69.628906 52.986328 C 69.628906 42.383306 61.177312 33.718039 50.677734 33.287109 L 50.980469 33.289062 C 50.969879 33.288507 50.959809 33.285656 50.949219 33.285156 C 51.030329 31.901453 50.776153 30.551075 50.175781 29.242188 C 49.458653 27.678669 48.34706 26.337804 47.359375 24.943359 C 46.397431 23.585211 45.494878 22.101516 45.285156 20.445312 C 45.232837 20.03235 45.225074 19.612729 45.246094 19.197266 C 45.249992 19.119855 45.258315 19.043927 45.265625 18.966797 C 45.267023 18.952727 45.268633 18.939777 45.269531 18.929688 C 45.271429 18.918388 45.274547 18.906362 45.277344 18.888672 C 45.303644 18.720616 45.342363 18.554699 45.386719 18.390625 C 45.423569 18.25433 45.469999 18.120318 45.519531 17.988281 C 45.523828 17.976891 45.526201 17.967324 45.529297 17.958984 C 45.533001 17.950883 45.537901 17.94293 45.542969 17.931641 C 45.571029 17.86886 45.601892 17.807483 45.632812 17.746094 C 45.694382 17.623872 45.763807 17.50683 45.835938 17.390625 C 45.871957 17.332665 45.910788 17.275139 45.949219 17.21875 C 45.962459 17.1994 46.044079 17.09261 46.0625 17.066406 C 46.224074 16.866777 46.402056 16.680851 46.587891 16.503906 C 46.690576 16.406126 46.797824 16.311908 46.90625 16.220703 C 46.94653 16.186813 46.98623 16.155827 47.027344 16.123047 C 47.012344 16.136656 47.174572 16.013139 47.195312 15.998047 C 47.708368 15.625362 48.261348 15.309903 48.824219 15.019531 C 50.0307 14.39694 51.298802 13.901698 52.542969 13.361328 C 54.893578 12.340317 57.430613 11.059074 58.367188 8.5 C 58.769873 7.4001852 58.719537 6.1841232 58.5 5.0527344 C 58.423264 4.6573176 58.149241 4.47354 57.847656 4.453125 z M 48.980469 35.316406 L 48.980469 61.759766 L 32.222656 61.759766 L 32.222656 52.986328 C 32.222656 43.547533 39.628616 35.812426 48.980469 35.316406 z M 32.222656 63.796875 L 67.591797 63.796875 L 67.591797 75.822266 C 67.591797 85.580505 59.664304 93.519531 49.90625 93.519531 C 40.148196 93.519531 32.222656 85.580505 32.222656 75.822266 L 32.222656 63.796875 z "
     transform="scale(10.8,10.8)"
     id="path4140" /></svg>